<svg xmlns="http://www.w3.org/2000/svg" xmlns:xlink="http://www.w3.org/1999/xlink" xmlns:lucid="lucid" width="1760" height="1360"><g transform="translate(0 0)" lucid:page-tab-id="HWEp-vi-RSFO"><path d="M0 0h1760v1360H0z" fill="#fff"/><path d="M360 67.22c0-4.42 3.58-8 8-8h836.75c4.42 0 8 3.58 8 8v25.15c0 4.42-3.58 8-8 8H368c-4.42 0-8-3.58-8-8z" stroke="#000" stroke-opacity="0" stroke-width="2" fill="#fff" fill-opacity="0"/><use xlink:href="#a" transform="matrix(1,0,0,1,364,63.21589288698109) translate(332.7211111111111 23.657777777777778)"/><path d="M360 108.37c0-4.42 3.58-8 8-8h837.7c4.43 0 8 3.58 8 8v2.85c0 4.4-3.57 8-8 8H368c-4.42 0-8-3.6-8-8z" stroke="#000" stroke-opacity="0" stroke-width="2" fill="#fff" fill-opacity="0"/><use xlink:href="#b" transform="matrix(1,0,0,1,364.00000000000045,104.3711168438799) translate(243.05187242798357 14.917037037037037)"/><use xlink:href="#c" transform="matrix(1,0,0,1,364.00000000000045,104.3711168438799) translate(285.41411522633746 14.917037037037037)"/><use xlink:href="#d" transform="matrix(1,0,0,1,364.00000000000045,104.3711168438799) translate(345.7070164609054 14.917037037037037)"/><use xlink:href="#e" transform="matrix(1,0,0,1,364.00000000000045,104.3711168438799) translate(374.60002057613167 14.917037037037037)"/><use xlink:href="#f" transform="matrix(1,0,0,1,364.00000000000045,104.3711168438799) translate(423.8880864197531 14.917037037037037)"/><use xlink:href="#g" transform="matrix(1,0,0,1,364.00000000000045,104.3711168438799) translate(479.03973251028805 14.917037037037037)"/><use xlink:href="#h" transform="matrix(1,0,0,1,364.00000000000045,104.3711168438799) translate(491.48921810699585 14.917037037037037)"/><use xlink:href="#i" transform="matrix(1,0,0,1,364.00000000000045,104.3711168438799) translate(550.0825308641976 14.917037037037037)"/><use xlink:href="#j" transform="matrix(1,0,0,1,364.00000000000045,104.3711168438799) translate(575.5763580246913 14.917037037037037)"/><path d="M516 637h441.4v31.6H516zM793 319h135.9v31.6H793z" fill="#fff" fill-opacity="0"/><path d="M900 213.8h360v242H900z" stroke="#333" stroke-width="2" fill="#fff"/><path d="M900 250.6h360M900 417.8h360" stroke="#333" stroke-width="2" fill="none"/><use xlink:href="#k" transform="matrix(1,0,0,1,908,221.8) translate(139.35555555555555 13.966666666666667)"/><use xlink:href="#l" transform="matrix(1,0,0,1,912,258.6) translate(0 14.800000000000006)"/><use xlink:href="#m" transform="matrix(1,0,0,1,912,258.6) translate(60.9 14.800000000000006)"/><use xlink:href="#n" transform="matrix(1,0,0,1,912,258.6) translate(0 36.400000000000006)"/><use xlink:href="#o" transform="matrix(1,0,0,1,912,258.6) translate(54.849999999999994 36.400000000000006)"/><use xlink:href="#p" transform="matrix(1,0,0,1,912,258.6) translate(0 58.00000000000001)"/><use xlink:href="#m" transform="matrix(1,0,0,1,912,258.6) translate(102.80000000000001 58.00000000000001)"/><use xlink:href="#q" transform="matrix(1,0,0,1,912,258.6) translate(0 79.60000000000002)"/><use xlink:href="#m" transform="matrix(1,0,0,1,912,258.6) translate(121.75000000000001 79.60000000000002)"/><use xlink:href="#r" transform="matrix(1,0,0,1,912,258.6) translate(0 101.20000000000002)"/><use xlink:href="#s" transform="matrix(1,0,0,1,912,258.6) translate(75.9 101.20000000000002)"/><use xlink:href="#t" transform="matrix(1,0,0,1,912,258.6) translate(0 122.80000000000001)"/><use xlink:href="#u" transform="matrix(1,0,0,1,912,258.6) translate(156.65 122.80000000000001)"/><use xlink:href="#v" transform="matrix(1,0,0,1,912,258.6) translate(0 144.4)"/><use xlink:href="#w" transform="matrix(1,0,0,1,912,258.6) translate(113.65 144.4)"/><path d="M460 357.67h360v263H460z" stroke="#333" stroke-width="2" fill="#fff"/><path d="M460 394.47h360m-360 188.8h360" stroke="#333" stroke-width="2" fill="none"/><use xlink:href="#x" transform="matrix(1,0,0,1,468,365.6723163841808) translate(148.43148148148148 13.966666666666667)"/><use xlink:href="#y" transform="matrix(1,0,0,1,472,402.47231638418083) translate(0 14.500000000000009)"/><use xlink:href="#z" transform="matrix(1,0,0,1,472,402.47231638418083) translate(88.85 14.500000000000009)"/><use xlink:href="#A" transform="matrix(1,0,0,1,472,402.47231638418083) translate(0 36.10000000000001)"/><use xlink:href="#z" transform="matrix(1,0,0,1,472,402.47231638418083) translate(131.75 36.10000000000001)"/><use xlink:href="#B" transform="matrix(1,0,0,1,472,402.47231638418083) translate(0 57.70000000000001)"/><use xlink:href="#C" transform="matrix(1,0,0,1,472,402.47231638418083) translate(78.9 57.70000000000001)"/><use xlink:href="#D" transform="matrix(1,0,0,1,472,402.47231638418083) translate(0 79.30000000000003)"/><use xlink:href="#E" transform="matrix(1,0,0,1,472,402.47231638418083) translate(121.75000000000001 79.30000000000003)"/><use xlink:href="#F" transform="matrix(1,0,0,1,472,402.47231638418083) translate(0 100.90000000000002)"/><use xlink:href="#G" transform="matrix(1,0,0,1,472,402.47231638418083) translate(75.9 100.90000000000002)"/><use xlink:href="#H" transform="matrix(1,0,0,1,472,402.47231638418083) translate(0 122.50000000000001)"/><use xlink:href="#I" transform="matrix(1,0,0,1,472,402.47231638418083) translate(156.65 122.50000000000001)"/><use xlink:href="#J" transform="matrix(1,0,0,1,472,402.47231638418083) translate(0 144.1)"/><use xlink:href="#I" transform="matrix(1,0,0,1,472,402.47231638418083) translate(113.65 144.1)"/><use xlink:href="#K" transform="matrix(1,0,0,1,472,402.47231638418083) translate(0 165.70000000000002)"/><use xlink:href="#L" transform="matrix(1,0,0,1,472,402.47231638418083) translate(45.900000000000006 165.70000000000002)"/><use xlink:href="#M" transform="matrix(1,0,0,1,472,402.47231638418083) translate(55.900000000000006 165.70000000000002)"/><path d="M900 540h360v220H900z" stroke="#333" stroke-width="2" fill="#fff"/><path d="M900 576.8h360M900 722.4h360" stroke="#333" stroke-width="2" fill="none"/><g><use xlink:href="#N" transform="matrix(1,0,0,1,908,548) translate(152.76481481481483 13.966666666666667)"/></g><g><use xlink:href="#l" transform="matrix(1,0,0,1,912,584.8) translate(0 14.600000000000003)"/><use xlink:href="#O" transform="matrix(1,0,0,1,912,584.8) translate(60.9 14.600000000000003)"/><use xlink:href="#P" transform="matrix(1,0,0,1,912,584.8) translate(0 36.2)"/><use xlink:href="#m" transform="matrix(1,0,0,1,912,584.8) translate(58.800000000000004 36.2)"/><use xlink:href="#Q" transform="matrix(1,0,0,1,912,584.8) translate(0 57.800000000000004)"/><use xlink:href="#m" transform="matrix(1,0,0,1,912,584.8) translate(102.85000000000001 57.800000000000004)"/><use xlink:href="#R" transform="matrix(1,0,0,1,912,584.8) translate(0 79.40000000000002)"/><use xlink:href="#m" transform="matrix(1,0,0,1,912,584.8) translate(39.95 79.40000000000002)"/><use xlink:href="#S" transform="matrix(1,0,0,1,912,584.8) translate(0 101.00000000000001)"/><use xlink:href="#m" transform="matrix(1,0,0,1,912,584.8) translate(65.95 101.00000000000001)"/><use xlink:href="#T" transform="matrix(1,0,0,1,912,584.8) translate(0 122.60000000000001)"/><use xlink:href="#U" transform="matrix(1,0,0,1,912,584.8) translate(45.849999999999994 122.60000000000001)"/></g><path d="M160 660h240v60H160z" stroke="#000" stroke-opacity="0" stroke-width="2" fill="#fff" fill-opacity="0"/><path d="M640 622.17V672c0 6.63 5.37 12 12 12h230.62" stroke="#333" fill="none"/><path d="M640.5 622.2h-1v-.53h1" fill="#333"/><path d="M897.38 684l-14.26 4.64v-9.28z" stroke="#333" fill="#333"/><path d="M898.5 304.45H652c-6.63 0-12 5.37-12 12v23.84" stroke="#333" fill="none"/><path d="M899 304.95h-.5v-1h.5" fill="#333"/><path d="M640 355.05l-4.64-14.26h9.28z" stroke="#333" fill="#333"/><path d="M20 430.5h360v155H20z" stroke="#333" stroke-width="2" fill="#fff"/><path d="M20 467.3h360M20 548.1h360" stroke="#333" stroke-width="2" fill="none"/><g><use xlink:href="#V" transform="matrix(1,0,0,1,28,438.5) translate(135.93703703703704 13.966666666666667)"/></g><g><use xlink:href="#W" transform="matrix(1,0,0,1,32,475.3) translate(0 14.500000000000002)"/><use xlink:href="#X" transform="matrix(1,0,0,1,32,475.3) translate(49.95 14.500000000000002)"/><use xlink:href="#Y" transform="matrix(1,0,0,1,32,475.3) translate(0 36.1)"/><use xlink:href="#Z" transform="matrix(1,0,0,1,32,475.3) translate(63.95 36.1)"/><use xlink:href="#aa" transform="matrix(1,0,0,1,32,475.3) translate(0 57.7)"/><use xlink:href="#ab" transform="matrix(1,0,0,1,32,475.3) translate(39.95 57.7)"/><use xlink:href="#ac" transform="matrix(1,0,0,1,32,475.3) translate(49.95 57.7)"/></g><path d="M458.5 489.17h-61.12" stroke="#333" fill="none"/><path d="M459 489.67h-.5v-1h.5" fill="#333"/><path d="M382.62 489.17l14.26-4.63v9.27z" stroke="#333" fill="#333"/><path d="M1380 235.8h360v198h-360z" stroke="#333" stroke-width="2" fill="#fff"/><path d="M1380 272.6h360m-360 124h360" stroke="#333" stroke-width="2" fill="none"/><g><use xlink:href="#ad" transform="matrix(1,0,0,1,1388,243.8) translate(132.59074074074073 13.966666666666667)"/></g><g><use xlink:href="#ae" transform="matrix(1,0,0,1,1392,280.6) translate(0 14.899999999999993)"/><use xlink:href="#E" transform="matrix(1,0,0,1,1392,280.6) translate(60.9 14.899999999999993)"/><use xlink:href="#af" transform="matrix(1,0,0,1,1392,280.6) translate(0 36.49999999999999)"/><use xlink:href="#I" transform="matrix(1,0,0,1,1392,280.6) translate(46.9 36.49999999999999)"/><use xlink:href="#ag" transform="matrix(1,0,0,1,1392,280.6) translate(0 58.099999999999994)"/><use xlink:href="#E" transform="matrix(1,0,0,1,1392,280.6) translate(92.85000000000001 58.099999999999994)"/><use xlink:href="#ah" transform="matrix(1,0,0,1,1392,280.6) translate(0 79.70000000000002)"/><use xlink:href="#E" transform="matrix(1,0,0,1,1392,280.6) translate(95.85000000000001 79.70000000000002)"/><use xlink:href="#ai" transform="matrix(1,0,0,1,1392,280.6) translate(0 101.30000000000001)"/><use xlink:href="#aj" transform="matrix(1,0,0,1,1392,280.6) translate(90.80000000000001 101.30000000000001)"/></g><path d="M1261.5 334.8h101.12" stroke="#333" fill="none"/><path d="M1261.5 335.3h-.5v-1h.5" fill="#333"/><path d="M1377.38 334.8l-14.26 4.64v-9.28z" stroke="#333" fill="#333"/><path d="M590.67 356.17V206.8c0-6.63 5.37-12 12-12H1472c6.63 0 12 5.37 12 12v11.62" stroke="#333" fill="none"/><path d="M591.17 356.67h-1v-.5h1" fill="#333"/><path d="M1484 233.18l-4.64-14.26h9.28z" stroke="#333" fill="#333"/><defs><path fill="#a9afb8" d="M185-48c-13 30-37 53-82 52C43 2 14-33 14-96s30-98 90-98c62 0 83 45 84 108H66c0 31 8 55 39 56 18 0 30-7 34-22zm-45-69c5-46-57-63-70-21-2 6-4 13-4 21h74" id="ak"/><path fill="#a9afb8" d="M190-63c-7 42-38 67-86 67-59 0-84-38-90-98-12-110 154-137 174-36l-49 2c-2-19-15-32-35-32-30 0-35 28-38 64-6 74 65 87 74 30" id="al"/><path fill="#a9afb8" d="M110-194c64 0 96 36 96 99 0 64-35 99-97 99-61 0-95-36-95-99 0-62 34-99 96-99zm-1 164c35 0 45-28 45-65 0-40-10-65-43-65-34 0-45 26-45 65 0 36 10 65 43 65" id="am"/><path fill="#a9afb8" d="M220-157c-53 9-28 100-34 157h-49v-107c1-27-5-49-29-50C55-147 81-57 75 0H25l-1-190h47c2 12-1 28 3 38 10-53 101-56 108 0 13-22 24-43 59-42 82 1 51 116 57 194h-49v-107c-1-25-5-48-29-50" id="an"/><path fill="#a9afb8" d="M135-150c-39-12-60 13-60 57V0H25l-1-190h47c2 13-1 29 3 40 6-28 27-53 61-41v41" id="ao"/><path fill="#a9afb8" d="M14-72v-43h91v43H14" id="ap"/><path fill="#a9afb8" d="M135-194c52 0 70 43 70 98 0 56-19 99-73 100-30 1-46-15-58-35L72 0H24l1-261h50v104c11-23 29-37 60-37zM114-30c31 0 40-27 40-66 0-37-7-63-39-63s-41 28-41 65c0 36 8 64 40 64" id="aq"/><path fill="#a9afb8" d="M88-194c31-1 46 15 58 34l-1-101h50l1 261h-48c-2-10 0-23-3-31C134-8 116 4 84 4 32 4 16-41 15-95c0-56 19-97 73-99zm17 164c33 0 40-30 41-66 1-37-9-64-41-64s-38 30-39 65c0 43 13 65 39 65" id="ar"/><g id="a"><use transform="matrix(0.0728395061728395,0,0,0.0728395061728395,0,0)" xlink:href="#ak"/><use transform="matrix(0.0728395061728395,0,0,0.0728395061728395,14.5679012345679,0)" xlink:href="#al"/><use transform="matrix(0.0728395061728395,0,0,0.0728395061728395,29.1358024691358,0)" xlink:href="#am"/><use transform="matrix(0.0728395061728395,0,0,0.0728395061728395,45.08765432098765,0)" xlink:href="#an"/><use transform="matrix(0.0728395061728395,0,0,0.0728395061728395,68.3962962962963,0)" xlink:href="#an"/><use transform="matrix(0.0728395061728395,0,0,0.0728395061728395,91.70493827160496,0)" xlink:href="#ak"/><use transform="matrix(0.0728395061728395,0,0,0.0728395061728395,106.27283950617284,0)" xlink:href="#ao"/><use transform="matrix(0.0728395061728395,0,0,0.0728395061728395,116.47037037037038,0)" xlink:href="#al"/><use transform="matrix(0.0728395061728395,0,0,0.0728395061728395,131.03827160493827,0)" xlink:href="#ak"/><use transform="matrix(0.0728395061728395,0,0,0.0728395061728395,145.60617283950617,0)" xlink:href="#ap"/><use transform="matrix(0.0728395061728395,0,0,0.0728395061728395,154.27407407407406,0)" xlink:href="#aq"/><use transform="matrix(0.0728395061728395,0,0,0.0728395061728395,170.22592592592594,0)" xlink:href="#ar"/></g><path fill="#a9afb8" d="M210-169c-67 3-38 105-44 169h-31v-121c0-29-5-50-35-48C34-165 62-65 56 0H25l-1-190h30c1 10-1 24 2 32 10-44 99-50 107 0 11-21 27-35 58-36 85-2 47 119 55 194h-31v-121c0-29-5-49-35-48" id="as"/><path fill="#a9afb8" d="M141-36C126-15 110 5 73 4 37 3 15-17 15-53c-1-64 63-63 125-63 3-35-9-54-41-54-24 1-41 7-42 31l-33-3c5-37 33-52 76-52 45 0 72 20 72 64v82c-1 20 7 32 28 27v20c-31 9-61-2-59-35zM48-53c0 20 12 33 32 33 41-3 63-29 60-74-43 2-92-5-92 41" id="at"/><path fill="#a9afb8" d="M114-163C36-179 61-72 57 0H25l-1-190h30c1 12-1 29 2 39 6-27 23-49 58-41v29" id="au"/><path fill="#a9afb8" d="M24-231v-30h32v30H24zM24 0v-190h32V0H24" id="av"/><g id="b"><use transform="matrix(0.04248971193415638,0,0,0.04248971193415638,0,0)" xlink:href="#as"/><use transform="matrix(0.04248971193415638,0,0,0.04248971193415638,12.704423868312757,0)" xlink:href="#at"/><use transform="matrix(0.04248971193415638,0,0,0.04248971193415638,21.20236625514403,0)" xlink:href="#au"/><use transform="matrix(0.04248971193415638,0,0,0.04248971193415638,26.25864197530864,0)" xlink:href="#av"/><use transform="matrix(0.04248971193415638,0,0,0.04248971193415638,29.615329218106993,0)" xlink:href="#at"/></g><path fill="#a9afb8" d="M100-194c63 0 86 42 84 106H49c0 40 14 67 53 68 26 1 43-12 49-29l28 8c-11 28-37 45-77 45C44 4 14-33 15-96c1-61 26-98 85-98zm52 81c6-60-76-77-97-28-3 7-6 17-6 28h103" id="aw"/><path fill="#a9afb8" d="M85-194c31 0 48 13 60 33l-1-100h32l1 261h-30c-2-10 0-23-3-31C134-8 116 4 85 4 32 4 16-35 15-94c0-66 23-100 70-100zm9 24c-40 0-46 34-46 75 0 40 6 74 45 74 42 0 51-32 51-76 0-42-9-74-50-73" id="ax"/><path fill="#a9afb8" d="M84 4C-5 8 30-112 23-190h32v120c0 31 7 50 39 49 72-2 45-101 50-169h31l1 190h-30c-1-10 1-25-2-33-11 22-28 36-60 37" id="ay"/><g id="c"><use transform="matrix(0.04248971193415638,0,0,0.04248971193415638,0,0)" xlink:href="#aw"/><use transform="matrix(0.04248971193415638,0,0,0.04248971193415638,8.497942386831275,0)" xlink:href="#ax"/><use transform="matrix(0.04248971193415638,0,0,0.04248971193415638,16.99588477366255,0)" xlink:href="#ay"/><use transform="matrix(0.04248971193415638,0,0,0.04248971193415638,25.493827160493822,0)" xlink:href="#at"/><use transform="matrix(0.04248971193415638,0,0,0.04248971193415638,33.9917695473251,0)" xlink:href="#au"/><use transform="matrix(0.04248971193415638,0,0,0.04248971193415638,39.048045267489705,0)" xlink:href="#ax"/><use transform="matrix(0.04248971193415638,0,0,0.04248971193415638,47.54598765432099,0)" xlink:href="#at"/></g><path fill="#a9afb8" d="M100-194c62-1 85 37 85 99 1 63-27 99-86 99S16-35 15-95c0-66 28-99 85-99zM99-20c44 1 53-31 53-75 0-43-8-75-51-75s-53 32-53 75 10 74 51 75" id="az"/><path fill="#a9afb8" d="M135-143c-3-34-86-38-87 0 15 53 115 12 119 90S17 21 10-45l28-5c4 36 97 45 98 0-10-56-113-15-118-90-4-57 82-63 122-42 12 7 21 19 24 35" id="aA"/><g id="d"><use transform="matrix(0.04248971193415638,0,0,0.04248971193415638,0,0)" xlink:href="#ax"/><use transform="matrix(0.04248971193415638,0,0,0.04248971193415638,8.497942386831275,0)" xlink:href="#az"/><use transform="matrix(0.04248971193415638,0,0,0.04248971193415638,16.99588477366255,0)" xlink:href="#aA"/></g><path fill="#a9afb8" d="M117-194c89-4 53 116 60 194h-32v-121c0-31-8-49-39-48C34-167 62-67 57 0H25l-1-190h30c1 10-1 24 2 32 11-22 29-35 61-36" id="aB"/><path fill="#a9afb8" d="M59-47c-2 24 18 29 38 22v24C64 9 27 4 27-40v-127H5v-23h24l9-43h21v43h35v23H59v120" id="aC"/><g id="e"><use transform="matrix(0.04248971193415638,0,0,0.04248971193415638,0,0)" xlink:href="#aA"/><use transform="matrix(0.04248971193415638,0,0,0.04248971193415638,7.648148148148148,0)" xlink:href="#at"/><use transform="matrix(0.04248971193415638,0,0,0.04248971193415638,16.14609053497942,0)" xlink:href="#aB"/><use transform="matrix(0.04248971193415638,0,0,0.04248971193415638,24.644032921810698,0)" xlink:href="#aC"/><use transform="matrix(0.04248971193415638,0,0,0.04248971193415638,28.893004115226336,0)" xlink:href="#az"/><use transform="matrix(0.04248971193415638,0,0,0.04248971193415638,37.39094650205761,0)" xlink:href="#aA"/></g><path fill="#a9afb8" d="M24 0v-261h32V0H24" id="aD"/><path fill="#a9afb8" d="M101-234c-31-9-42 10-38 44h38v23H63V0H32v-167H5v-23h27c-7-52 17-82 69-68v24" id="aE"/><g id="f"><use transform="matrix(0.04248971193415638,0,0,0.04248971193415638,0,0)" xlink:href="#au"/><use transform="matrix(0.04248971193415638,0,0,0.04248971193415638,5.056275720164609,0)" xlink:href="#az"/><use transform="matrix(0.04248971193415638,0,0,0.04248971193415638,13.554218106995881,0)" xlink:href="#ax"/><use transform="matrix(0.04248971193415638,0,0,0.04248971193415638,22.05216049382716,0)" xlink:href="#az"/><use transform="matrix(0.04248971193415638,0,0,0.04248971193415638,30.550102880658436,0)" xlink:href="#aD"/><use transform="matrix(0.04248971193415638,0,0,0.04248971193415638,33.90679012345679,0)" xlink:href="#aE"/><use transform="matrix(0.04248971193415638,0,0,0.04248971193415638,38.15576131687242,0)" xlink:href="#az"/></g><path fill="#a9afb8" d="M32 76v-337h29V76H32" id="aF"/><use transform="matrix(0.04248971193415638,0,0,0.04248971193415638,0,0)" xlink:href="#aF" id="g"/><path fill="#a9afb8" d="M153-248C145-148 188 4 80 4 36 3 13-21 6-62l32-5c4 25 16 42 43 43 27 0 39-20 39-49v-147H72v-28h81" id="aG"/><path fill="#a9afb8" d="M179-190L93 31C79 59 56 82 12 73V49c39 6 53-20 64-50L1-190h34L92-34l54-156h33" id="aH"/><g id="h"><use transform="matrix(0.04248971193415638,0,0,0.04248971193415638,0,0)" xlink:href="#aG"/><use transform="matrix(0.04248971193415638,0,0,0.04248971193415638,7.648148148148148,0)" xlink:href="#at"/><use transform="matrix(0.04248971193415638,0,0,0.04248971193415638,16.14609053497942,0)" xlink:href="#aB"/><use transform="matrix(0.04248971193415638,0,0,0.04248971193415638,24.644032921810698,0)" xlink:href="#ay"/><use transform="matrix(0.04248971193415638,0,0,0.04248971193415638,33.141975308641975,0)" xlink:href="#at"/><use transform="matrix(0.04248971193415638,0,0,0.04248971193415638,41.63991769547325,0)" xlink:href="#au"/><use transform="matrix(0.04248971193415638,0,0,0.04248971193415638,46.69619341563786,0)" xlink:href="#aH"/></g><path fill="#a9afb8" d="M101-251c82-7 93 87 43 132L82-64C71-53 59-42 53-27h129V0H18c2-99 128-94 128-182 0-28-16-43-45-43s-46 15-49 41l-32-3c6-41 34-60 81-64" id="aI"/><path fill="#a9afb8" d="M126-127c33 6 58 20 58 59 0 88-139 92-164 29-3-8-5-16-6-25l32-3c6 27 21 44 54 44 32 0 52-15 52-46 0-38-36-46-79-43v-28c39 1 72-4 72-42 0-27-17-43-46-43-28 0-47 15-49 41l-32-3c6-42 35-63 81-64 48-1 79 21 79 65 0 36-21 52-52 59" id="aJ"/><path fill="#a9afb8" d="M68-38c1 34 0 65-14 84H32c9-13 17-26 17-46H33v-38h35" id="aK"/><g id="i"><use transform="matrix(0.04248971193415638,0,0,0.04248971193415638,0,0)" xlink:href="#aI"/><use transform="matrix(0.04248971193415638,0,0,0.04248971193415638,8.497942386831275,0)" xlink:href="#aJ"/><use transform="matrix(0.04248971193415638,0,0,0.04248971193415638,16.99588477366255,0)" xlink:href="#aK"/></g><path fill="#a9afb8" d="M101-251c68 0 85 55 85 127S166 4 100 4C33 4 14-52 14-124c0-73 17-127 87-127zm-1 229c47 0 54-49 54-102s-4-102-53-102c-51 0-55 48-55 102 0 53 5 102 54 102" id="aL"/><g id="j"><use transform="matrix(0.04248971193415638,0,0,0.04248971193415638,0,0)" xlink:href="#aI"/><use transform="matrix(0.04248971193415638,0,0,0.04248971193415638,8.497942386831275,0)" xlink:href="#aL"/><use transform="matrix(0.04248971193415638,0,0,0.04248971193415638,16.99588477366255,0)" xlink:href="#aI"/><use transform="matrix(0.04248971193415638,0,0,0.04248971193415638,25.493827160493822,0)" xlink:href="#aI"/></g><path d="M24-248c93 1 206-16 204 79-1 75-69 88-152 82V0H24v-248zm52 121c47 0 100 7 100-41 0-47-54-39-100-39v80" id="aM"/><path d="M135-150c-39-12-60 13-60 57V0H25l-1-190h47c2 13-1 29 3 40 6-28 27-53 61-41v41" id="aN"/><path d="M110-194c64 0 96 36 96 99 0 64-35 99-97 99-61 0-95-36-95-99 0-62 34-99 96-99zm-1 164c35 0 45-28 45-65 0-40-10-65-43-65-34 0-45 26-45 65 0 36 10 65 43 65" id="aO"/><path d="M88-194c31-1 46 15 58 34l-1-101h50l1 261h-48c-2-10 0-23-3-31C134-8 116 4 84 4 32 4 16-41 15-95c0-56 19-97 73-99zm17 164c33 0 40-30 41-66 1-37-9-64-41-64s-38 30-39 65c0 43 13 65 39 65" id="aP"/><path d="M85 4C-2 5 27-109 22-190h50c7 57-23 150 33 157 60-5 35-97 40-157h50l1 190h-47c-2-12 1-28-3-38-12 25-28 42-61 42" id="aQ"/><path d="M190-63c-7 42-38 67-86 67-59 0-84-38-90-98-12-110 154-137 174-36l-49 2c-2-19-15-32-35-32-30 0-35 28-38 64-6 74 65 87 74 30" id="aR"/><path d="M115-3C79 11 28 4 28-45v-112H4v-33h27l15-45h31v45h36v33H77v99c-1 23 16 31 38 25v30" id="aS"/><g id="k"><use transform="matrix(0.048148148148148155,0,0,0.048148148148148155,0,0)" xlink:href="#aM"/><use transform="matrix(0.048148148148148155,0,0,0.048148148148148155,11.555555555555557,0)" xlink:href="#aN"/><use transform="matrix(0.048148148148148155,0,0,0.048148148148148155,18.296296296296298,0)" xlink:href="#aO"/><use transform="matrix(0.048148148148148155,0,0,0.048148148148148155,28.84074074074074,0)" xlink:href="#aP"/><use transform="matrix(0.048148148148148155,0,0,0.048148148148148155,39.385185185185186,0)" xlink:href="#aQ"/><use transform="matrix(0.048148148148148155,0,0,0.048148148148148155,49.92962962962962,0)" xlink:href="#aR"/><use transform="matrix(0.048148148148148155,0,0,0.048148148148148155,59.55925925925927,0)" xlink:href="#aS"/></g><path fill="#333" d="M16-82v-28h88v28H16" id="aT"/><path fill="#333" d="M117-194c89-4 53 116 60 194h-32v-121c0-31-8-49-39-48C34-167 62-67 57 0H25l-1-190h30c1 10-1 24 2 32 11-22 29-35 61-36" id="aU"/><path fill="#333" d="M141-36C126-15 110 5 73 4 37 3 15-17 15-53c-1-64 63-63 125-63 3-35-9-54-41-54-24 1-41 7-42 31l-33-3c5-37 33-52 76-52 45 0 72 20 72 64v82c-1 20 7 32 28 27v20c-31 9-61-2-59-35zM48-53c0 20 12 33 32 33 41-3 63-29 60-74-43 2-92-5-92 41" id="aV"/><path fill="#333" d="M210-169c-67 3-38 105-44 169h-31v-121c0-29-5-50-35-48C34-165 62-65 56 0H25l-1-190h30c1 10-1 24 2 32 10-44 99-50 107 0 11-21 27-35 58-36 85-2 47 119 55 194h-31v-121c0-29-5-49-35-48" id="aW"/><path fill="#333" d="M100-194c63 0 86 42 84 106H49c0 40 14 67 53 68 26 1 43-12 49-29l28 8c-11 28-37 45-77 45C44 4 14-33 15-96c1-61 26-98 85-98zm52 81c6-60-76-77-97-28-3 7-6 17-6 28h103" id="aX"/><path fill="#333" d="M33-154v-36h34v36H33zM33 0v-36h34V0H33" id="aY"/><g id="l"><use transform="matrix(0.05,0,0,0.05,0,0)" xlink:href="#aT"/><use transform="matrix(0.05,0,0,0.05,5.95,0)" xlink:href="#aU"/><use transform="matrix(0.05,0,0,0.05,15.949999999999998,0)" xlink:href="#aV"/><use transform="matrix(0.05,0,0,0.05,25.950000000000003,0)" xlink:href="#aW"/><use transform="matrix(0.05,0,0,0.05,40.9,0)" xlink:href="#aX"/><use transform="matrix(0.05,0,0,0.05,50.9,0)" xlink:href="#aY"/></g><path fill="#333" d="M185-189c-5-48-123-54-124 2 14 75 158 14 163 119 3 78-121 87-175 55-17-10-28-26-33-46l33-7c5 56 141 63 141-1 0-78-155-14-162-118-5-82 145-84 179-34 5 7 8 16 11 25" id="aZ"/><path fill="#333" d="M59-47c-2 24 18 29 38 22v24C64 9 27 4 27-40v-127H5v-23h24l9-43h21v43h35v23H59v120" id="ba"/><path fill="#333" d="M114-163C36-179 61-72 57 0H25l-1-190h30c1 12-1 29 2 39 6-27 23-49 58-41v29" id="bb"/><path fill="#333" d="M24-231v-30h32v30H24zM24 0v-190h32V0H24" id="bc"/><path fill="#333" d="M177-190C167-65 218 103 67 71c-23-6-38-20-44-43l32-5c15 47 100 32 89-28v-30C133-14 115 1 83 1 29 1 15-40 15-95c0-56 16-97 71-98 29-1 48 16 59 35 1-10 0-23 2-32h30zM94-22c36 0 50-32 50-73 0-42-14-75-50-75-39 0-46 34-46 75s6 73 46 73" id="bd"/><g id="m"><use transform="matrix(0.05,0,0,0.05,0,0)" xlink:href="#aZ"/><use transform="matrix(0.05,0,0,0.05,12,0)" xlink:href="#ba"/><use transform="matrix(0.05,0,0,0.05,17,0)" xlink:href="#bb"/><use transform="matrix(0.05,0,0,0.05,22.95,0)" xlink:href="#bc"/><use transform="matrix(0.05,0,0,0.05,26.899999999999995,0)" xlink:href="#aU"/><use transform="matrix(0.05,0,0,0.05,36.9,0)" xlink:href="#bd"/></g><path fill="#333" d="M115-194c55 1 70 41 70 98S169 2 115 4C84 4 66-9 55-30l1 105H24l-1-265h31l2 30c10-21 28-34 59-34zm-8 174c40 0 45-34 45-75s-6-73-45-74c-42 0-51 32-51 76 0 43 10 73 51 73" id="be"/><path fill="#333" d="M96-169c-40 0-48 33-48 73s9 75 48 75c24 0 41-14 43-38l32 2c-6 37-31 61-74 61-59 0-76-41-82-99-10-93 101-131 147-64 4 7 5 14 7 22l-32 3c-4-21-16-35-41-35" id="bf"/><g id="n"><use transform="matrix(0.05,0,0,0.05,0,0)" xlink:href="#aT"/><use transform="matrix(0.05,0,0,0.05,5.95,0)" xlink:href="#be"/><use transform="matrix(0.05,0,0,0.05,15.949999999999998,0)" xlink:href="#bb"/><use transform="matrix(0.05,0,0,0.05,21.9,0)" xlink:href="#bc"/><use transform="matrix(0.05,0,0,0.05,25.849999999999994,0)" xlink:href="#bf"/><use transform="matrix(0.05,0,0,0.05,34.849999999999994,0)" xlink:href="#aX"/><use transform="matrix(0.05,0,0,0.05,44.849999999999994,0)" xlink:href="#aY"/></g><path fill="#333" d="M160-131c35 5 61 23 61 61C221 17 115-2 30 0v-248c76 3 177-17 177 60 0 33-19 50-47 57zm-97-11c50-1 110 9 110-42 0-47-63-36-110-37v79zm0 115c55-2 124 14 124-45 0-56-70-42-124-44v89" id="bg"/><path fill="#333" d="M33 0v-248h34V0H33" id="bh"/><path fill="#333" d="M30-248c118-7 216 8 213 122C240-48 200 0 122 0H30v-248zM63-27c89 8 146-16 146-99s-60-101-146-95v194" id="bi"/><path fill="#333" d="M24 0v-261h32V0H24" id="bj"/><g id="o"><use transform="matrix(0.05,0,0,0.05,0,0)" xlink:href="#bg"/><use transform="matrix(0.05,0,0,0.05,12,0)" xlink:href="#bh"/><use transform="matrix(0.05,0,0,0.05,17,0)" xlink:href="#bd"/><use transform="matrix(0.05,0,0,0.05,27,0)" xlink:href="#bi"/><use transform="matrix(0.05,0,0,0.05,39.95,0)" xlink:href="#aX"/><use transform="matrix(0.05,0,0,0.05,49.95,0)" xlink:href="#bf"/><use transform="matrix(0.05,0,0,0.05,58.95,0)" xlink:href="#bc"/><use transform="matrix(0.05,0,0,0.05,62.900000000000006,0)" xlink:href="#aW"/><use transform="matrix(0.05,0,0,0.05,77.85000000000001,0)" xlink:href="#aV"/><use transform="matrix(0.05,0,0,0.05,87.85000000000001,0)" xlink:href="#bj"/></g><path fill="#333" d="M85-194c31 0 48 13 60 33l-1-100h32l1 261h-30c-2-10 0-23-3-31C134-8 116 4 85 4 32 4 16-35 15-94c0-66 23-100 70-100zm9 24c-40 0-46 34-46 75 0 40 6 74 45 74 42 0 51-32 51-76 0-42-9-74-50-73" id="bk"/><path fill="#333" d="M135-143c-3-34-86-38-87 0 15 53 115 12 119 90S17 21 10-45l28-5c4 36 97 45 98 0-10-56-113-15-118-90-4-57 82-63 122-42 12 7 21 19 24 35" id="bl"/><path fill="#333" d="M100-194c62-1 85 37 85 99 1 63-27 99-86 99S16-35 15-95c0-66 28-99 85-99zM99-20c44 1 53-31 53-75 0-43-8-75-51-75s-53 32-53 75 10 74 51 75" id="bm"/><g id="p"><use transform="matrix(0.05,0,0,0.05,0,0)" xlink:href="#aT"/><use transform="matrix(0.05,0,0,0.05,5.95,0)" xlink:href="#bk"/><use transform="matrix(0.05,0,0,0.05,15.949999999999998,0)" xlink:href="#aX"/><use transform="matrix(0.05,0,0,0.05,25.950000000000003,0)" xlink:href="#bl"/><use transform="matrix(0.05,0,0,0.05,34.95,0)" xlink:href="#bf"/><use transform="matrix(0.05,0,0,0.05,43.95,0)" xlink:href="#bb"/><use transform="matrix(0.05,0,0,0.05,49.900000000000006,0)" xlink:href="#bc"/><use transform="matrix(0.05,0,0,0.05,53.85,0)" xlink:href="#be"/><use transform="matrix(0.05,0,0,0.05,63.85,0)" xlink:href="#ba"/><use transform="matrix(0.05,0,0,0.05,68.85000000000001,0)" xlink:href="#bc"/><use transform="matrix(0.05,0,0,0.05,72.80000000000001,0)" xlink:href="#bm"/><use transform="matrix(0.05,0,0,0.05,82.80000000000001,0)" xlink:href="#aU"/><use transform="matrix(0.05,0,0,0.05,92.80000000000001,0)" xlink:href="#aY"/></g><path fill="#333" d="M106-169C34-169 62-67 57 0H25v-261h32l-1 103c12-21 28-36 61-36 89 0 53 116 60 194h-32v-121c2-32-8-49-39-48" id="bn"/><g id="q"><use transform="matrix(0.05,0,0,0.05,0,0)" xlink:href="#aT"/><use transform="matrix(0.05,0,0,0.05,5.95,0)" xlink:href="#bf"/><use transform="matrix(0.05,0,0,0.05,14.949999999999998,0)" xlink:href="#bn"/><use transform="matrix(0.05,0,0,0.05,24.95,0)" xlink:href="#aV"/><use transform="matrix(0.05,0,0,0.05,34.95,0)" xlink:href="#bb"/><use transform="matrix(0.05,0,0,0.05,40.900000000000006,0)" xlink:href="#aV"/><use transform="matrix(0.05,0,0,0.05,50.900000000000006,0)" xlink:href="#bf"/><use transform="matrix(0.05,0,0,0.05,59.900000000000006,0)" xlink:href="#ba"/><use transform="matrix(0.05,0,0,0.05,64.9,0)" xlink:href="#aX"/><use transform="matrix(0.05,0,0,0.05,74.9,0)" xlink:href="#bb"/><use transform="matrix(0.05,0,0,0.05,80.85000000000001,0)" xlink:href="#bc"/><use transform="matrix(0.05,0,0,0.05,84.80000000000001,0)" xlink:href="#bl"/><use transform="matrix(0.05,0,0,0.05,93.80000000000001,0)" xlink:href="#ba"/><use transform="matrix(0.05,0,0,0.05,98.80000000000001,0)" xlink:href="#bc"/><use transform="matrix(0.05,0,0,0.05,102.75,0)" xlink:href="#bf"/><use transform="matrix(0.05,0,0,0.05,111.75,0)" xlink:href="#aY"/></g><g id="r"><use transform="matrix(0.05,0,0,0.05,0,0)" xlink:href="#aT"/><use transform="matrix(0.05,0,0,0.05,5.95,0)" xlink:href="#bl"/><use transform="matrix(0.05,0,0,0.05,14.949999999999998,0)" xlink:href="#ba"/><use transform="matrix(0.05,0,0,0.05,19.95,0)" xlink:href="#bm"/><use transform="matrix(0.05,0,0,0.05,29.950000000000003,0)" xlink:href="#bb"/><use transform="matrix(0.05,0,0,0.05,35.9,0)" xlink:href="#aV"/><use transform="matrix(0.05,0,0,0.05,45.9,0)" xlink:href="#bd"/><use transform="matrix(0.05,0,0,0.05,55.900000000000006,0)" xlink:href="#aX"/><use transform="matrix(0.05,0,0,0.05,65.9,0)" xlink:href="#aY"/></g><path fill="#333" d="M30 0v-248h33v221h125V0H30" id="bo"/><g id="s"><use transform="matrix(0.05,0,0,0.05,0,0)" xlink:href="#bo"/><use transform="matrix(0.05,0,0,0.05,10,0)" xlink:href="#bm"/><use transform="matrix(0.05,0,0,0.05,20,0)" xlink:href="#aU"/><use transform="matrix(0.05,0,0,0.05,30,0)" xlink:href="#bd"/></g><path fill="#333" d="M140-251c81 0 123 46 123 126C263-46 219 4 140 4 59 4 17-45 17-125s42-126 123-126zm0 227c63 0 89-41 89-101s-29-99-89-99c-61 0-89 39-89 99S79-25 140-24" id="bp"/><path fill="#333" d="M101-234c-31-9-42 10-38 44h38v23H63V0H32v-167H5v-23h27c-7-52 17-82 69-68v24" id="bq"/><path fill="#333" d="M212-179c-10-28-35-45-73-45-59 0-87 40-87 99 0 60 29 101 89 101 43 0 62-24 78-52l27 14C228-24 195 4 139 4 59 4 22-46 18-125c-6-104 99-153 187-111 19 9 31 26 39 46" id="br"/><g id="t"><use transform="matrix(0.05,0,0,0.05,0,0)" xlink:href="#aT"/><use transform="matrix(0.05,0,0,0.05,5.95,0)" xlink:href="#bj"/><use transform="matrix(0.05,0,0,0.05,9.9,0)" xlink:href="#bc"/><use transform="matrix(0.05,0,0,0.05,13.850000000000001,0)" xlink:href="#aW"/><use transform="matrix(0.05,0,0,0.05,28.8,0)" xlink:href="#bc"/><use transform="matrix(0.05,0,0,0.05,32.75000000000001,0)" xlink:href="#ba"/><use transform="matrix(0.05,0,0,0.05,37.75000000000001,0)" xlink:href="#bp"/><use transform="matrix(0.05,0,0,0.05,51.75,0)" xlink:href="#bq"/><use transform="matrix(0.05,0,0,0.05,56.75,0)" xlink:href="#br"/><use transform="matrix(0.05,0,0,0.05,69.7,0)" xlink:href="#bm"/><use transform="matrix(0.05,0,0,0.05,79.7,0)" xlink:href="#aU"/><use transform="matrix(0.05,0,0,0.05,89.7,0)" xlink:href="#aX"/><use transform="matrix(0.05,0,0,0.05,99.7,0)" xlink:href="#bf"/><use transform="matrix(0.05,0,0,0.05,108.7,0)" xlink:href="#ba"/><use transform="matrix(0.05,0,0,0.05,113.7,0)" xlink:href="#bc"/><use transform="matrix(0.05,0,0,0.05,117.65,0)" xlink:href="#bm"/><use transform="matrix(0.05,0,0,0.05,127.65,0)" xlink:href="#aU"/><use transform="matrix(0.05,0,0,0.05,137.65,0)" xlink:href="#bl"/><use transform="matrix(0.05,0,0,0.05,146.65,0)" xlink:href="#aY"/></g><g id="u"><use transform="matrix(0.05,0,0,0.05,0,0)" xlink:href="#bc"/><use transform="matrix(0.05,0,0,0.05,3.95,0)" xlink:href="#aU"/><use transform="matrix(0.05,0,0,0.05,13.949999999999998,0)" xlink:href="#ba"/></g><path fill="#333" d="M232-93c-1 65-40 97-104 97C67 4 28-28 28-90v-158h33c8 89-33 224 67 224 102 0 64-133 71-224h33v155" id="bs"/><g id="v"><use transform="matrix(0.05,0,0,0.05,0,0)" xlink:href="#aT"/><use transform="matrix(0.05,0,0,0.05,5.95,0)" xlink:href="#bj"/><use transform="matrix(0.05,0,0,0.05,9.9,0)" xlink:href="#bc"/><use transform="matrix(0.05,0,0,0.05,13.850000000000001,0)" xlink:href="#aW"/><use transform="matrix(0.05,0,0,0.05,28.8,0)" xlink:href="#bc"/><use transform="matrix(0.05,0,0,0.05,32.75000000000001,0)" xlink:href="#ba"/><use transform="matrix(0.05,0,0,0.05,37.75000000000001,0)" xlink:href="#bp"/><use transform="matrix(0.05,0,0,0.05,51.75,0)" xlink:href="#bq"/><use transform="matrix(0.05,0,0,0.05,56.75,0)" xlink:href="#bs"/><use transform="matrix(0.05,0,0,0.05,69.7,0)" xlink:href="#bl"/><use transform="matrix(0.05,0,0,0.05,78.7,0)" xlink:href="#aX"/><use transform="matrix(0.05,0,0,0.05,88.7,0)" xlink:href="#bb"/><use transform="matrix(0.05,0,0,0.05,94.65,0)" xlink:href="#bl"/><use transform="matrix(0.05,0,0,0.05,103.65,0)" xlink:href="#aY"/></g><g id="w"><use transform="matrix(0.05,0,0,0.05,0,0)" xlink:href="#bc"/><use transform="matrix(0.05,0,0,0.05,3.95,0)" xlink:href="#aU"/><use transform="matrix(0.05,0,0,0.05,13.949999999999998,0)" xlink:href="#ba"/></g><path d="M140-251c80 0 125 45 125 126S219 4 139 4C58 4 15-44 15-125s44-126 125-126zm-1 214c52 0 73-35 73-88 0-50-21-86-72-86-52 0-73 35-73 86s22 88 72 88" id="bt"/><path d="M185-48c-13 30-37 53-82 52C43 2 14-33 14-96s30-98 90-98c62 0 83 45 84 108H66c0 31 8 55 39 56 18 0 30-7 34-22zm-45-69c5-46-57-63-70-21-2 6-4 13-4 21h74" id="bu"/><g id="x"><use transform="matrix(0.048148148148148155,0,0,0.048148148148148155,0,0)" xlink:href="#bt"/><use transform="matrix(0.048148148148148155,0,0,0.048148148148148155,13.481481481481483,0)" xlink:href="#aN"/><use transform="matrix(0.048148148148148155,0,0,0.048148148148148155,20.222222222222225,0)" xlink:href="#aP"/><use transform="matrix(0.048148148148148155,0,0,0.048148148148148155,30.766666666666673,0)" xlink:href="#bu"/><use transform="matrix(0.048148148148148155,0,0,0.048148148148148155,40.396296296296306,0)" xlink:href="#aN"/></g><g id="y"><use transform="matrix(0.05,0,0,0.05,0,0)" xlink:href="#aT"/><use transform="matrix(0.05,0,0,0.05,5.95,0)" xlink:href="#bl"/><use transform="matrix(0.05,0,0,0.05,14.949999999999998,0)" xlink:href="#ba"/><use transform="matrix(0.05,0,0,0.05,19.95,0)" xlink:href="#aV"/><use transform="matrix(0.05,0,0,0.05,29.950000000000003,0)" xlink:href="#bb"/><use transform="matrix(0.05,0,0,0.05,35.9,0)" xlink:href="#ba"/><use transform="matrix(0.05,0,0,0.05,40.9,0)" xlink:href="#bi"/><use transform="matrix(0.05,0,0,0.05,53.85,0)" xlink:href="#aV"/><use transform="matrix(0.05,0,0,0.05,63.85,0)" xlink:href="#ba"/><use transform="matrix(0.05,0,0,0.05,68.85,0)" xlink:href="#aX"/><use transform="matrix(0.05,0,0,0.05,78.85,0)" xlink:href="#aY"/></g><path fill="#333" d="M127-220V0H93v-220H8v-28h204v28h-85" id="bv"/><g id="z"><use transform="matrix(0.05,0,0,0.05,0,0)" xlink:href="#bi"/><use transform="matrix(0.05,0,0,0.05,12.950000000000001,0)" xlink:href="#aV"/><use transform="matrix(0.05,0,0,0.05,22.950000000000003,0)" xlink:href="#ba"/><use transform="matrix(0.05,0,0,0.05,27.950000000000003,0)" xlink:href="#aX"/><use transform="matrix(0.05,0,0,0.05,37.95,0)" xlink:href="#bv"/><use transform="matrix(0.05,0,0,0.05,48.25000000000001,0)" xlink:href="#bc"/><use transform="matrix(0.05,0,0,0.05,52.20000000000002,0)" xlink:href="#aW"/><use transform="matrix(0.05,0,0,0.05,67.15,0)" xlink:href="#aX"/></g><path fill="#333" d="M141 0L90-78 38 0H4l68-98-65-92h35l48 74 47-74h35l-64 92 68 98h-35" id="bw"/><g id="A"><use transform="matrix(0.05,0,0,0.05,0,0)" xlink:href="#aT"/><use transform="matrix(0.05,0,0,0.05,5.95,0)" xlink:href="#aX"/><use transform="matrix(0.05,0,0,0.05,15.949999999999998,0)" xlink:href="#bw"/><use transform="matrix(0.05,0,0,0.05,24.95,0)" xlink:href="#be"/><use transform="matrix(0.05,0,0,0.05,34.95,0)" xlink:href="#bc"/><use transform="matrix(0.05,0,0,0.05,38.900000000000006,0)" xlink:href="#bb"/><use transform="matrix(0.05,0,0,0.05,44.85000000000001,0)" xlink:href="#aV"/><use transform="matrix(0.05,0,0,0.05,54.85,0)" xlink:href="#ba"/><use transform="matrix(0.05,0,0,0.05,59.85,0)" xlink:href="#bc"/><use transform="matrix(0.05,0,0,0.05,63.80000000000001,0)" xlink:href="#bm"/><use transform="matrix(0.05,0,0,0.05,73.80000000000001,0)" xlink:href="#aU"/><use transform="matrix(0.05,0,0,0.05,83.80000000000001,0)" xlink:href="#bi"/><use transform="matrix(0.05,0,0,0.05,96.75000000000001,0)" xlink:href="#aV"/><use transform="matrix(0.05,0,0,0.05,106.75,0)" xlink:href="#ba"/><use transform="matrix(0.05,0,0,0.05,111.75,0)" xlink:href="#aX"/><use transform="matrix(0.05,0,0,0.05,121.75,0)" xlink:href="#aY"/></g><path fill="#333" d="M84 4C-5 8 30-112 23-190h32v120c0 31 7 50 39 49 72-2 45-101 50-169h31l1 190h-30c-1-10 1-25-2-33-11 22-28 36-60 37" id="bx"/><path fill="#333" d="M115-194c53 0 69 39 70 98 0 66-23 100-70 100C84 3 66-7 56-30L54 0H23l1-261h32v101c10-23 28-34 59-34zm-8 174c40 0 45-34 45-75 0-40-5-75-45-74-42 0-51 32-51 76 0 43 10 73 51 73" id="by"/><g id="B"><use transform="matrix(0.05,0,0,0.05,0,0)" xlink:href="#aT"/><use transform="matrix(0.05,0,0,0.05,5.95,0)" xlink:href="#bl"/><use transform="matrix(0.05,0,0,0.05,14.949999999999998,0)" xlink:href="#bx"/><use transform="matrix(0.05,0,0,0.05,24.95,0)" xlink:href="#by"/><use transform="matrix(0.05,0,0,0.05,34.95,0)" xlink:href="#ba"/><use transform="matrix(0.05,0,0,0.05,39.95,0)" xlink:href="#bm"/><use transform="matrix(0.05,0,0,0.05,49.95,0)" xlink:href="#ba"/><use transform="matrix(0.05,0,0,0.05,54.95,0)" xlink:href="#aV"/><use transform="matrix(0.05,0,0,0.05,64.95,0)" xlink:href="#bj"/><use transform="matrix(0.05,0,0,0.05,68.9,0)" xlink:href="#aY"/></g><g id="C"><use transform="matrix(0.05,0,0,0.05,0,0)" xlink:href="#bg"/><use transform="matrix(0.05,0,0,0.05,12,0)" xlink:href="#bc"/><use transform="matrix(0.05,0,0,0.05,15.949999999999998,0)" xlink:href="#bd"/><use transform="matrix(0.05,0,0,0.05,25.950000000000003,0)" xlink:href="#bi"/><use transform="matrix(0.05,0,0,0.05,38.9,0)" xlink:href="#aX"/><use transform="matrix(0.05,0,0,0.05,48.9,0)" xlink:href="#bf"/><use transform="matrix(0.05,0,0,0.05,57.900000000000006,0)" xlink:href="#bc"/><use transform="matrix(0.05,0,0,0.05,61.85,0)" xlink:href="#aW"/><use transform="matrix(0.05,0,0,0.05,76.8,0)" xlink:href="#aV"/><use transform="matrix(0.05,0,0,0.05,86.8,0)" xlink:href="#bj"/></g><g id="D"><use transform="matrix(0.05,0,0,0.05,0,0)" xlink:href="#aT"/><use transform="matrix(0.05,0,0,0.05,5.95,0)" xlink:href="#bf"/><use transform="matrix(0.05,0,0,0.05,14.949999999999998,0)" xlink:href="#bn"/><use transform="matrix(0.05,0,0,0.05,24.95,0)" xlink:href="#aV"/><use transform="matrix(0.05,0,0,0.05,34.95,0)" xlink:href="#bb"/><use transform="matrix(0.05,0,0,0.05,40.900000000000006,0)" xlink:href="#aV"/><use transform="matrix(0.05,0,0,0.05,50.900000000000006,0)" xlink:href="#bf"/><use transform="matrix(0.05,0,0,0.05,59.900000000000006,0)" xlink:href="#ba"/><use transform="matrix(0.05,0,0,0.05,64.9,0)" xlink:href="#aX"/><use transform="matrix(0.05,0,0,0.05,74.9,0)" xlink:href="#bb"/><use transform="matrix(0.05,0,0,0.05,80.85000000000001,0)" xlink:href="#bc"/><use transform="matrix(0.05,0,0,0.05,84.80000000000001,0)" xlink:href="#bl"/><use transform="matrix(0.05,0,0,0.05,93.80000000000001,0)" xlink:href="#ba"/><use transform="matrix(0.05,0,0,0.05,98.80000000000001,0)" xlink:href="#bc"/><use transform="matrix(0.05,0,0,0.05,102.75,0)" xlink:href="#bf"/><use transform="matrix(0.05,0,0,0.05,111.75,0)" xlink:href="#aY"/></g><g id="E"><use transform="matrix(0.05,0,0,0.05,0,0)" xlink:href="#aZ"/><use transform="matrix(0.05,0,0,0.05,12,0)" xlink:href="#ba"/><use transform="matrix(0.05,0,0,0.05,17,0)" xlink:href="#bb"/><use transform="matrix(0.05,0,0,0.05,22.95,0)" xlink:href="#bc"/><use transform="matrix(0.05,0,0,0.05,26.899999999999995,0)" xlink:href="#aU"/><use transform="matrix(0.05,0,0,0.05,36.9,0)" xlink:href="#bd"/></g><g id="F"><use transform="matrix(0.05,0,0,0.05,0,0)" xlink:href="#aT"/><use transform="matrix(0.05,0,0,0.05,5.95,0)" xlink:href="#bl"/><use transform="matrix(0.05,0,0,0.05,14.949999999999998,0)" xlink:href="#ba"/><use transform="matrix(0.05,0,0,0.05,19.95,0)" xlink:href="#bm"/><use transform="matrix(0.05,0,0,0.05,29.950000000000003,0)" xlink:href="#bb"/><use transform="matrix(0.05,0,0,0.05,35.9,0)" xlink:href="#aV"/><use transform="matrix(0.05,0,0,0.05,45.9,0)" xlink:href="#bd"/><use transform="matrix(0.05,0,0,0.05,55.900000000000006,0)" xlink:href="#aX"/><use transform="matrix(0.05,0,0,0.05,65.9,0)" xlink:href="#aY"/></g><g id="G"><use transform="matrix(0.05,0,0,0.05,0,0)" xlink:href="#bo"/><use transform="matrix(0.05,0,0,0.05,10,0)" xlink:href="#bm"/><use transform="matrix(0.05,0,0,0.05,20,0)" xlink:href="#aU"/><use transform="matrix(0.05,0,0,0.05,30,0)" xlink:href="#bd"/></g><g id="H"><use transform="matrix(0.05,0,0,0.05,0,0)" xlink:href="#aT"/><use transform="matrix(0.05,0,0,0.05,5.95,0)" xlink:href="#bj"/><use transform="matrix(0.05,0,0,0.05,9.9,0)" xlink:href="#bc"/><use transform="matrix(0.05,0,0,0.05,13.850000000000001,0)" xlink:href="#aW"/><use transform="matrix(0.05,0,0,0.05,28.8,0)" xlink:href="#bc"/><use transform="matrix(0.05,0,0,0.05,32.75000000000001,0)" xlink:href="#ba"/><use transform="matrix(0.05,0,0,0.05,37.75000000000001,0)" xlink:href="#bp"/><use transform="matrix(0.05,0,0,0.05,51.75,0)" xlink:href="#bq"/><use transform="matrix(0.05,0,0,0.05,56.75,0)" xlink:href="#br"/><use transform="matrix(0.05,0,0,0.05,69.7,0)" xlink:href="#bm"/><use transform="matrix(0.05,0,0,0.05,79.7,0)" xlink:href="#aU"/><use transform="matrix(0.05,0,0,0.05,89.7,0)" xlink:href="#aX"/><use transform="matrix(0.05,0,0,0.05,99.7,0)" xlink:href="#bf"/><use transform="matrix(0.05,0,0,0.05,108.7,0)" xlink:href="#ba"/><use transform="matrix(0.05,0,0,0.05,113.7,0)" xlink:href="#bc"/><use transform="matrix(0.05,0,0,0.05,117.65,0)" xlink:href="#bm"/><use transform="matrix(0.05,0,0,0.05,127.65,0)" xlink:href="#aU"/><use transform="matrix(0.05,0,0,0.05,137.65,0)" xlink:href="#bl"/><use transform="matrix(0.05,0,0,0.05,146.65,0)" xlink:href="#aY"/></g><g id="I"><use transform="matrix(0.05,0,0,0.05,0,0)" xlink:href="#bc"/><use transform="matrix(0.05,0,0,0.05,3.95,0)" xlink:href="#aU"/><use transform="matrix(0.05,0,0,0.05,13.949999999999998,0)" xlink:href="#ba"/></g><g id="J"><use transform="matrix(0.05,0,0,0.05,0,0)" xlink:href="#aT"/><use transform="matrix(0.05,0,0,0.05,5.95,0)" xlink:href="#bj"/><use transform="matrix(0.05,0,0,0.05,9.9,0)" xlink:href="#bc"/><use transform="matrix(0.05,0,0,0.05,13.850000000000001,0)" xlink:href="#aW"/><use transform="matrix(0.05,0,0,0.05,28.8,0)" xlink:href="#bc"/><use transform="matrix(0.05,0,0,0.05,32.75000000000001,0)" xlink:href="#ba"/><use transform="matrix(0.05,0,0,0.05,37.75000000000001,0)" xlink:href="#bp"/><use transform="matrix(0.05,0,0,0.05,51.75,0)" xlink:href="#bq"/><use transform="matrix(0.05,0,0,0.05,56.75,0)" xlink:href="#bs"/><use transform="matrix(0.05,0,0,0.05,69.7,0)" xlink:href="#bl"/><use transform="matrix(0.05,0,0,0.05,78.7,0)" xlink:href="#aX"/><use transform="matrix(0.05,0,0,0.05,88.7,0)" xlink:href="#bb"/><use transform="matrix(0.05,0,0,0.05,94.65,0)" xlink:href="#bl"/><use transform="matrix(0.05,0,0,0.05,103.65,0)" xlink:href="#aY"/></g><g id="K"><use transform="matrix(0.05,0,0,0.05,0,0)" xlink:href="#aT"/><use transform="matrix(0.05,0,0,0.05,5.95,0)" xlink:href="#bx"/><use transform="matrix(0.05,0,0,0.05,15.949999999999998,0)" xlink:href="#bl"/><use transform="matrix(0.05,0,0,0.05,24.95,0)" xlink:href="#aX"/><use transform="matrix(0.05,0,0,0.05,34.95,0)" xlink:href="#bb"/></g><use transform="matrix(0.05,0,0,0.05,0,0)" xlink:href="#aY" id="L"/><g id="M"><use transform="matrix(0.05,0,0,0.05,0,0)" xlink:href="#bs"/><use transform="matrix(0.05,0,0,0.05,12.950000000000001,0)" xlink:href="#bl"/><use transform="matrix(0.05,0,0,0.05,21.950000000000003,0)" xlink:href="#aX"/><use transform="matrix(0.05,0,0,0.05,31.950000000000003,0)" xlink:href="#bb"/></g><path d="M238-95c0 69-44 99-111 99C63 4 22-25 22-93v-155h51v151c-1 38 19 59 55 60 90 1 49-130 58-211h52v153" id="bz"/><path d="M137-138c1-29-70-34-71-4 15 46 118 7 119 86 1 83-164 76-172 9l43-7c4 19 20 25 44 25 33 8 57-30 24-41C81-84 22-81 20-136c-2-80 154-74 161-7" id="bA"/><g id="N"><use transform="matrix(0.048148148148148155,0,0,0.048148148148148155,0,0)" xlink:href="#bz"/><use transform="matrix(0.048148148148148155,0,0,0.048148148148148155,12.470370370370372,0)" xlink:href="#bA"/><use transform="matrix(0.048148148148148155,0,0,0.048148148148148155,22.1,0)" xlink:href="#bu"/><use transform="matrix(0.048148148148148155,0,0,0.048148148148148155,31.729629629629635,0)" xlink:href="#aN"/></g><g id="O"><use transform="matrix(0.05,0,0,0.05,0,0)" xlink:href="#aZ"/><use transform="matrix(0.05,0,0,0.05,12,0)" xlink:href="#ba"/><use transform="matrix(0.05,0,0,0.05,17,0)" xlink:href="#bb"/><use transform="matrix(0.05,0,0,0.05,22.95,0)" xlink:href="#bc"/><use transform="matrix(0.05,0,0,0.05,26.899999999999995,0)" xlink:href="#aU"/><use transform="matrix(0.05,0,0,0.05,36.9,0)" xlink:href="#bd"/></g><g id="P"><use transform="matrix(0.05,0,0,0.05,0,0)" xlink:href="#aT"/><use transform="matrix(0.05,0,0,0.05,5.95,0)" xlink:href="#aX"/><use transform="matrix(0.05,0,0,0.05,15.949999999999998,0)" xlink:href="#aW"/><use transform="matrix(0.05,0,0,0.05,30.899999999999995,0)" xlink:href="#aV"/><use transform="matrix(0.05,0,0,0.05,40.9,0)" xlink:href="#bc"/><use transform="matrix(0.05,0,0,0.05,44.85,0)" xlink:href="#bj"/><use transform="matrix(0.05,0,0,0.05,48.800000000000004,0)" xlink:href="#aY"/></g><path fill="#333" d="M206 0h-36l-40-164L89 0H53L-1-190h32L70-26l43-164h34l41 164 42-164h31" id="bB"/><g id="Q"><use transform="matrix(0.05,0,0,0.05,0,0)" xlink:href="#aT"/><use transform="matrix(0.05,0,0,0.05,5.95,0)" xlink:href="#be"/><use transform="matrix(0.05,0,0,0.05,15.949999999999998,0)" xlink:href="#aV"/><use transform="matrix(0.05,0,0,0.05,25.950000000000003,0)" xlink:href="#bl"/><use transform="matrix(0.05,0,0,0.05,34.95,0)" xlink:href="#bl"/><use transform="matrix(0.05,0,0,0.05,43.95,0)" xlink:href="#aV"/><use transform="matrix(0.05,0,0,0.05,53.95,0)" xlink:href="#bB"/><use transform="matrix(0.05,0,0,0.05,66.9,0)" xlink:href="#bm"/><use transform="matrix(0.05,0,0,0.05,76.9,0)" xlink:href="#bb"/><use transform="matrix(0.05,0,0,0.05,82.85000000000001,0)" xlink:href="#bk"/><use transform="matrix(0.05,0,0,0.05,92.85000000000001,0)" xlink:href="#aY"/></g><g id="R"><use transform="matrix(0.05,0,0,0.05,0,0)" xlink:href="#aT"/><use transform="matrix(0.05,0,0,0.05,5.95,0)" xlink:href="#bf"/><use transform="matrix(0.05,0,0,0.05,14.949999999999998,0)" xlink:href="#be"/><use transform="matrix(0.05,0,0,0.05,24.95,0)" xlink:href="#bq"/><use transform="matrix(0.05,0,0,0.05,29.950000000000003,0)" xlink:href="#aY"/></g><g id="S"><use transform="matrix(0.05,0,0,0.05,0,0)" xlink:href="#aT"/><use transform="matrix(0.05,0,0,0.05,5.95,0)" xlink:href="#be"/><use transform="matrix(0.05,0,0,0.05,15.949999999999998,0)" xlink:href="#bn"/><use transform="matrix(0.05,0,0,0.05,25.950000000000003,0)" xlink:href="#bm"/><use transform="matrix(0.05,0,0,0.05,35.95,0)" xlink:href="#aU"/><use transform="matrix(0.05,0,0,0.05,45.95,0)" xlink:href="#aX"/><use transform="matrix(0.05,0,0,0.05,55.95,0)" xlink:href="#aY"/></g><g id="T"><use transform="matrix(0.05,0,0,0.05,0,0)" xlink:href="#aT"/><use transform="matrix(0.05,0,0,0.05,5.95,0)" xlink:href="#bb"/><use transform="matrix(0.05,0,0,0.05,11.9,0)" xlink:href="#bm"/><use transform="matrix(0.05,0,0,0.05,21.9,0)" xlink:href="#bj"/><use transform="matrix(0.05,0,0,0.05,25.849999999999994,0)" xlink:href="#aX"/><use transform="matrix(0.05,0,0,0.05,35.849999999999994,0)" xlink:href="#aY"/></g><path fill="#333" d="M233-177c-1 41-23 64-60 70L243 0h-38l-65-103H63V0H30v-248c88 3 205-21 203 71zM63-129c60-2 137 13 137-47 0-61-80-42-137-45v92" id="bC"/><g id="U"><use transform="matrix(0.05,0,0,0.05,0,0)" xlink:href="#bC"/><use transform="matrix(0.05,0,0,0.05,12.950000000000001,0)" xlink:href="#bm"/><use transform="matrix(0.05,0,0,0.05,22.950000000000003,0)" xlink:href="#bj"/><use transform="matrix(0.05,0,0,0.05,26.900000000000002,0)" xlink:href="#aX"/></g><path d="M133-34C117-15 103 5 69 4 32 3 11-16 11-54c-1-60 55-63 116-61 1-26-3-47-28-47-18 1-26 9-28 27l-52-2c7-38 36-58 82-57s74 22 75 68l1 82c-1 14 12 18 25 15v27c-30 8-71 5-69-32zm-48 3c29 0 43-24 42-57-32 0-66-3-65 30 0 17 8 27 23 27" id="bD"/><path d="M123 10C108 53 80 86 19 72V37c35 8 53-11 59-39L3-190h52l48 148c12-52 28-100 44-148h51" id="bE"/><path d="M220-157c-53 9-28 100-34 157h-49v-107c1-27-5-49-29-50C55-147 81-57 75 0H25l-1-190h47c2 12-1 28 3 38 10-53 101-56 108 0 13-22 24-43 59-42 82 1 51 116 57 194h-49v-107c-1-25-5-48-29-50" id="bF"/><path d="M135-194c87-1 58 113 63 194h-50c-7-57 23-157-34-157-59 0-34 97-39 157H25l-1-190h47c2 12-1 28 3 38 12-26 28-41 61-42" id="bG"/><g id="V"><use transform="matrix(0.048148148148148155,0,0,0.048148148148148155,0,0)" xlink:href="#aM"/><use transform="matrix(0.048148148148148155,0,0,0.048148148148148155,11.555555555555557,0)" xlink:href="#bD"/><use transform="matrix(0.048148148148148155,0,0,0.048148148148148155,21.18518518518519,0)" xlink:href="#bE"/><use transform="matrix(0.048148148148148155,0,0,0.048148148148148155,30.814814814814824,0)" xlink:href="#bF"/><use transform="matrix(0.048148148148148155,0,0,0.048148148148148155,46.222222222222236,0)" xlink:href="#bu"/><use transform="matrix(0.048148148148148155,0,0,0.048148148148148155,55.85185185185187,0)" xlink:href="#bG"/><use transform="matrix(0.048148148148148155,0,0,0.048148148148148155,66.39629629629631,0)" xlink:href="#aS"/></g><path fill="#333" d="M179-190L93 31C79 59 56 82 12 73V49c39 6 53-20 64-50L1-190h34L92-34l54-156h33" id="bH"/><g id="W"><use transform="matrix(0.05,0,0,0.05,0,0)" xlink:href="#aT"/><use transform="matrix(0.05,0,0,0.05,5.95,0)" xlink:href="#ba"/><use transform="matrix(0.05,0,0,0.05,10.95,0)" xlink:href="#bH"/><use transform="matrix(0.05,0,0,0.05,19.95,0)" xlink:href="#be"/><use transform="matrix(0.05,0,0,0.05,29.950000000000003,0)" xlink:href="#aX"/><use transform="matrix(0.05,0,0,0.05,39.95,0)" xlink:href="#aY"/></g><g id="X"><use transform="matrix(0.05,0,0,0.05,0,0)" xlink:href="#bv"/><use transform="matrix(0.05,0,0,0.05,9.950000000000001,0)" xlink:href="#bH"/><use transform="matrix(0.05,0,0,0.05,18.950000000000003,0)" xlink:href="#be"/><use transform="matrix(0.05,0,0,0.05,28.950000000000003,0)" xlink:href="#aX"/></g><g id="Y"><use transform="matrix(0.05,0,0,0.05,0,0)" xlink:href="#aT"/><use transform="matrix(0.05,0,0,0.05,5.95,0)" xlink:href="#bl"/><use transform="matrix(0.05,0,0,0.05,14.949999999999998,0)" xlink:href="#ba"/><use transform="matrix(0.05,0,0,0.05,19.95,0)" xlink:href="#aV"/><use transform="matrix(0.05,0,0,0.05,29.950000000000003,0)" xlink:href="#ba"/><use transform="matrix(0.05,0,0,0.05,34.95,0)" xlink:href="#bx"/><use transform="matrix(0.05,0,0,0.05,44.95,0)" xlink:href="#bl"/><use transform="matrix(0.05,0,0,0.05,53.95,0)" xlink:href="#aY"/></g><g id="Z"><use transform="matrix(0.05,0,0,0.05,0,0)" xlink:href="#aZ"/><use transform="matrix(0.05,0,0,0.05,12,0)" xlink:href="#ba"/><use transform="matrix(0.05,0,0,0.05,17,0)" xlink:href="#aV"/><use transform="matrix(0.05,0,0,0.05,27,0)" xlink:href="#ba"/><use transform="matrix(0.05,0,0,0.05,32,0)" xlink:href="#bx"/><use transform="matrix(0.05,0,0,0.05,42,0)" xlink:href="#bl"/></g><g id="aa"><use transform="matrix(0.05,0,0,0.05,0,0)" xlink:href="#aT"/><use transform="matrix(0.05,0,0,0.05,5.95,0)" xlink:href="#bm"/><use transform="matrix(0.05,0,0,0.05,15.949999999999998,0)" xlink:href="#by"/><use transform="matrix(0.05,0,0,0.05,25.950000000000003,0)" xlink:href="#bl"/></g><use transform="matrix(0.05,0,0,0.05,0,0)" xlink:href="#aY" id="ab"/><g id="ac"><use transform="matrix(0.05,0,0,0.05,0,0)" xlink:href="#aZ"/><use transform="matrix(0.05,0,0,0.05,12,0)" xlink:href="#ba"/><use transform="matrix(0.05,0,0,0.05,17,0)" xlink:href="#bb"/><use transform="matrix(0.05,0,0,0.05,22.95,0)" xlink:href="#bc"/><use transform="matrix(0.05,0,0,0.05,26.899999999999995,0)" xlink:href="#aU"/><use transform="matrix(0.05,0,0,0.05,36.9,0)" xlink:href="#bd"/></g><path d="M24-248c120-7 223 5 221 122C244-46 201 0 124 0H24v-248zM76-40c74 7 117-18 117-86 0-67-45-88-117-82v168" id="bI"/><path d="M182-130c37 4 62 22 62 59C244 23 116-4 24 0v-248c84 5 203-23 205 63 0 31-19 50-47 55zM76-148c40-3 101 13 101-30 0-44-60-28-101-31v61zm0 110c48-3 116 14 116-37 0-48-69-32-116-35v72" id="bJ"/><g id="ad"><use transform="matrix(0.048148148148148155,0,0,0.048148148148148155,0,0)" xlink:href="#bI"/><use transform="matrix(0.048148148148148155,0,0,0.048148148148148155,12.470370370370372,0)" xlink:href="#bD"/><use transform="matrix(0.048148148148148155,0,0,0.048148148148148155,22.1,0)" xlink:href="#aS"/><use transform="matrix(0.048148148148148155,0,0,0.048148148148148155,27.829629629629633,0)" xlink:href="#bD"/><use transform="matrix(0.048148148148148155,0,0,0.048148148148148155,37.45925925925926,0)" xlink:href="#bJ"/><use transform="matrix(0.048148148148148155,0,0,0.048148148148148155,49.92962962962962,0)" xlink:href="#bD"/><use transform="matrix(0.048148148148148155,0,0,0.048148148148148155,59.55925925925927,0)" xlink:href="#bA"/><use transform="matrix(0.048148148148148155,0,0,0.048148148148148155,69.1888888888889,0)" xlink:href="#bu"/></g><g id="ae"><use transform="matrix(0.05,0,0,0.05,0,0)" xlink:href="#aT"/><use transform="matrix(0.05,0,0,0.05,5.95,0)" xlink:href="#aU"/><use transform="matrix(0.05,0,0,0.05,15.949999999999998,0)" xlink:href="#aV"/><use transform="matrix(0.05,0,0,0.05,25.950000000000003,0)" xlink:href="#aW"/><use transform="matrix(0.05,0,0,0.05,40.9,0)" xlink:href="#aX"/><use transform="matrix(0.05,0,0,0.05,50.9,0)" xlink:href="#aY"/></g><g id="af"><use transform="matrix(0.05,0,0,0.05,0,0)" xlink:href="#aT"/><use transform="matrix(0.05,0,0,0.05,5.95,0)" xlink:href="#be"/><use transform="matrix(0.05,0,0,0.05,15.949999999999998,0)" xlink:href="#bm"/><use transform="matrix(0.05,0,0,0.05,25.950000000000003,0)" xlink:href="#bb"/><use transform="matrix(0.05,0,0,0.05,31.899999999999995,0)" xlink:href="#ba"/><use transform="matrix(0.05,0,0,0.05,36.9,0)" xlink:href="#aY"/></g><g id="ag"><use transform="matrix(0.05,0,0,0.05,0,0)" xlink:href="#aT"/><use transform="matrix(0.05,0,0,0.05,5.95,0)" xlink:href="#be"/><use transform="matrix(0.05,0,0,0.05,15.949999999999998,0)" xlink:href="#aV"/><use transform="matrix(0.05,0,0,0.05,25.950000000000003,0)" xlink:href="#bl"/><use transform="matrix(0.05,0,0,0.05,34.95,0)" xlink:href="#bl"/><use transform="matrix(0.05,0,0,0.05,43.95,0)" xlink:href="#bB"/><use transform="matrix(0.05,0,0,0.05,56.900000000000006,0)" xlink:href="#bm"/><use transform="matrix(0.05,0,0,0.05,66.9,0)" xlink:href="#bb"/><use transform="matrix(0.05,0,0,0.05,72.85000000000001,0)" xlink:href="#bk"/><use transform="matrix(0.05,0,0,0.05,82.85000000000001,0)" xlink:href="#aY"/></g><g id="ah"><use transform="matrix(0.05,0,0,0.05,0,0)" xlink:href="#aT"/><use transform="matrix(0.05,0,0,0.05,5.95,0)" xlink:href="#bx"/><use transform="matrix(0.05,0,0,0.05,15.949999999999998,0)" xlink:href="#bl"/><use transform="matrix(0.05,0,0,0.05,24.95,0)" xlink:href="#aX"/><use transform="matrix(0.05,0,0,0.05,34.95,0)" xlink:href="#bb"/><use transform="matrix(0.05,0,0,0.05,40.900000000000006,0)" xlink:href="#aU"/><use transform="matrix(0.05,0,0,0.05,50.900000000000006,0)" xlink:href="#aV"/><use transform="matrix(0.05,0,0,0.05,60.900000000000006,0)" xlink:href="#aW"/><use transform="matrix(0.05,0,0,0.05,75.85000000000001,0)" xlink:href="#aX"/><use transform="matrix(0.05,0,0,0.05,85.85000000000001,0)" xlink:href="#aY"/></g><path fill="#333" d="M209 0H11v-25l151-195H24v-28h176v25L50-27h159V0" id="bK"/><g id="ai"><use transform="matrix(0.05,0,0,0.05,0,0)" xlink:href="#aT"/><use transform="matrix(0.05,0,0,0.05,5.95,0)" xlink:href="#ba"/><use transform="matrix(0.05,0,0,0.05,10.95,0)" xlink:href="#bc"/><use transform="matrix(0.05,0,0,0.05,14.899999999999999,0)" xlink:href="#aW"/><use transform="matrix(0.05,0,0,0.05,29.85,0)" xlink:href="#aX"/><use transform="matrix(0.05,0,0,0.05,39.85,0)" xlink:href="#bK"/><use transform="matrix(0.05,0,0,0.05,50.800000000000004,0)" xlink:href="#bm"/><use transform="matrix(0.05,0,0,0.05,60.800000000000004,0)" xlink:href="#aU"/><use transform="matrix(0.05,0,0,0.05,70.80000000000001,0)" xlink:href="#aX"/><use transform="matrix(0.05,0,0,0.05,80.80000000000001,0)" xlink:href="#aY"/></g><g id="aj"><use transform="matrix(0.05,0,0,0.05,0,0)" xlink:href="#aZ"/><use transform="matrix(0.05,0,0,0.05,12,0)" xlink:href="#ba"/><use transform="matrix(0.05,0,0,0.05,17,0)" xlink:href="#bb"/><use transform="matrix(0.05,0,0,0.05,22.95,0)" xlink:href="#bc"/><use transform="matrix(0.05,0,0,0.05,26.899999999999995,0)" xlink:href="#aU"/><use transform="matrix(0.05,0,0,0.05,36.9,0)" xlink:href="#bd"/></g></defs></g></svg>